<?xml version="1.0" encoding="UTF-8" standalone="no"?>
<!-- Generator: visioncortex VTracer 0.6.4 -->

<svg
   version="1.1"
   width="600"
   height="300"
   id="svg138"
   sodipodi:docname="logo.svg"
   inkscape:version="1.2.2 (b0a8486541, 2022-12-01)"
   xmlns:inkscape="http://www.inkscape.org/namespaces/inkscape"
   xmlns:sodipodi="http://sodipodi.sourceforge.net/DTD/sodipodi-0.dtd"
   xmlns="http://www.w3.org/2000/svg"
   xmlns:svg="http://www.w3.org/2000/svg">
  <defs
     id="defs142" />
  <sodipodi:namedview
     id="namedview140"
     pagecolor="#ffffff"
     bordercolor="#000000"
     borderopacity="0.25"
     inkscape:showpageshadow="2"
     inkscape:pageopacity="0.0"
     inkscape:pagecheckerboard="0"
     inkscape:deskcolor="#d1d1d1"
     showgrid="false"
     inkscape:zoom="1.2291667"
     inkscape:cx="190.77966"
     inkscape:cy="234.30509"
     inkscape:window-width="1920"
     inkscape:window-height="1118"
     inkscape:window-x="0"
     inkscape:window-y="0"
     inkscape:window-maximized="1"
     inkscape:current-layer="svg138"
     showguides="true">
    <sodipodi:guide
       position="15.050848,188.54237"
       orientation="1,0"
       id="guide5868"
       inkscape:locked="false" />
  </sodipodi:namedview>
  <g
     aria-label="Queries"
     id="text617"
     style="font-weight:bold;font-size:151.886px;font-family:Lora;-inkscape-font-specification:'Lora Bold';fill:#aa0000;stroke-width:985.884;stroke-linejoin:bevel"
     inkscape:label="Queries">
    <path
       d="m 124.53989,293.38019 q -6.98675,0 -11.23956,-0.60754 -4.10092,-0.45566 -7.44242,-2.27829 -3.1896,-1.67075 -7.442409,-5.31601 -6.379212,-5.77167 -11.087678,-10.93579 -4.55658,-5.01224 -9.11316,-8.35373 -4.55658,-3.18961 -10.935792,-3.18961 -13.973513,0 -23.846103,-4.86035 -9.720704,-5.01224 -15.796144,-13.0622 -6.07544,-8.20184 -8.961274,-18.07443 -2.733948,-9.87259 -2.733948,-19.5933 0,-9.56882 3.189606,-19.28952 3.341492,-9.87259 9.87259,-18.07443 6.682984,-8.20185 16.70746,-13.21409 10.024476,-5.01223 23.542331,-5.01223 13.821626,0 23.846102,5.01223 10.024479,5.01224 16.403689,13.36597 6.37921,8.20185 9.41693,17.92255 3.03772,9.7207 3.03772,19.28952 0,7.5943 -2.1264,15.49237 -2.12641,7.74619 -6.37921,15.03672 -4.25281,7.13864 -10.78391,12.91031 -6.379213,5.61978 -14.884829,8.96127 4.404694,0 7.746186,0.60755 3.493378,0.60754 6.834873,2.27829 3.34149,1.82263 7.29053,5.61978 5.31601,4.86035 8.35373,7.89807 3.1896,3.03772 5.16412,4.55658 1.97452,1.67075 3.64526,2.12641 1.82264,0.60754 4.25281,0.60754 v 10.17636 z M 70.316591,251.61154 q 7.898072,0 13.214082,-3.79715 5.31601,-3.94904 8.505616,-10.17636 3.189606,-6.22733 4.55658,-13.51786 1.51886,-7.44241 1.51886,-14.42917 0,-10.48013 -1.822632,-19.13763 -1.822632,-8.6575 -5.619782,-14.88483 -3.79715,-6.37921 -9.720704,-9.7207 -5.771668,-3.49338 -13.66974,-3.3415 -7.898073,0.15189 -13.214083,4.25281 -5.31601,3.94904 -8.505616,10.32825 -3.03772,6.22733 -4.404694,13.66974 -1.366974,7.44241 -1.366974,14.42917 0,7.13864 1.51886,15.1886 1.670746,8.04996 5.164124,15.1886 3.493378,7.13864 9.265046,11.54334 5.923555,4.40469 14.581057,4.40469 z"
       id="path5991" />
    <path
       d="m 165.09353,262.69922 q -9.11316,0 -14.73294,-3.49338 -5.4679,-3.49338 -8.04996,-10.93579 -2.43018,-7.44242 -2.43018,-19.13764 v -17.46689 q 0,-2.73395 0.15189,-6.22732 0.15188,-3.64527 0.30377,-6.98676 -2.43018,0.15189 -5.77167,0.30377 -3.1896,0 -4.86035,0.15189 v -11.54334 h 1.51886 q 9.41693,0 14.88483,-1.51886 5.46789,-1.51886 6.98675,-3.03772 h 8.35373 v 46.47712 q 0,9.87259 2.58207,14.73294 2.58206,4.70847 8.20184,4.70847 3.94904,0 7.89807,-2.12641 4.10092,-2.27829 6.68299,-5.16412 v -29.76966 q 0,-2.73395 0.15188,-6.22732 0.15189,-3.64527 0.45566,-6.98676 -2.43018,0.15189 -5.77167,0.30377 -3.1896,0 -4.86035,0.15189 v -11.54334 h 3.64526 q 7.13865,0 12.60654,-1.51886 5.4679,-1.67074 6.98676,-3.03772 h 8.35373 v 53.00822 q 0,2.1264 -0.15189,6.07544 -0.15188,3.79715 -0.45566,7.29052 2.43018,-0.30377 5.31601,-0.30377 3.03772,-0.15188 4.55658,-0.15188 v 11.54333 h -28.85834 q -0.15188,-1.97452 -0.45565,-3.94903 -0.15189,-1.97452 -0.45566,-3.94904 -4.70847,3.94904 -10.17636,7.13864 -5.31601,3.18961 -12.60654,3.18961 z"
       id="path5993" />
    <path
       d="m 263.51565,262.69922 q -11.08767,0 -19.59329,-4.86035 -8.50562,-5.01224 -13.21408,-13.97352 -4.70847,-9.11316 -4.70847,-21.41592 0,-10.63202 4.70847,-19.89707 4.70846,-9.26504 13.21408,-14.88483 8.6575,-5.77166 20.04895,-5.77166 6.37922,0 12.45466,1.82263 6.07544,1.67074 10.93579,5.92355 5.01224,4.25281 7.89807,11.54334 3.03772,7.29053 2.88583,18.22632 l -49.81861,0.91131 q 0,8.20185 1.97452,14.73295 2.12641,6.53109 6.83487,10.32824 4.70847,3.79715 12.60654,3.79715 3.03772,0 6.83487,-1.0632 3.94904,-1.0632 7.89807,-3.49338 4.10093,-2.58206 7.5943,-6.83487 l 6.83487,6.37922 q -5.46789,7.74618 -11.69522,11.8471 -6.22732,3.94904 -12.45465,5.31601 -6.07544,1.36698 -11.23957,1.36698 z M 249.23837,209.691 h 27.94703 q -0.15189,-6.37921 -1.82264,-10.02447 -1.51886,-3.79715 -4.2528,-5.4679 -2.73395,-1.67074 -6.37922,-1.67074 -6.68298,0 -10.48013,4.86035 -3.79715,4.70846 -5.01224,12.30276 z"
       id="path5995" />
    <path
       d="m 309.23336,250.39645 q 4.25281,0 6.07544,-1.67074 1.82264,-1.67075 2.27829,-4.70847 0.60755,-3.18961 0.60755,-7.13864 v -25.51685 q 0,-2.73395 0.15188,-6.07544 0.15189,-3.49338 0.45566,-6.83487 -2.43017,0.15189 -5.77167,0.30377 -3.1896,0 -4.86035,0.15189 v -11.54334 h 6.07544 q 5.92356,0 10.78391,-1.51886 5.01224,-1.51886 6.5311,-3.03772 h 7.44241 q 0.30377,1.51886 0.45566,5.77167 0.15188,4.10092 0.15188,7.29053 4.10093,-5.01224 7.74619,-8.04996 3.64526,-3.03772 7.13864,-4.40469 3.64527,-1.51886 7.29053,-1.51886 5.31601,0 9.26505,3.03772 Q 375,187.81942 375,194.5024 q 0,2.27829 -1.0632,4.86036 -1.0632,2.43017 -3.34149,4.10092 -2.27829,1.67074 -6.22733,1.67074 -3.03772,0 -6.22732,-1.82263 -3.18961,-1.82263 -3.64527,-6.98675 -3.03772,0 -6.07544,2.58206 -3.03772,2.43017 -5.46789,5.92355 -2.27829,3.34149 -3.18961,6.22733 v 24.75742 q 0,2.1264 -0.15189,6.07544 -0.15188,3.79715 -0.45565,7.29052 2.43017,-0.30377 5.31601,-0.30377 3.03772,-0.15188 4.55658,-0.15188 v 11.54333 h -39.79414 z"
       id="path5997" />
    <path
       d="m 382.13858,250.39645 q 4.2528,0 6.07544,-1.67074 1.82263,-1.67075 2.27829,-4.70847 0.60754,-3.18961 0.60754,-7.13864 v -25.21308 q 0,-2.73395 0.15189,-6.22732 0.15188,-3.64527 0.45565,-6.98676 -2.43017,0.15189 -5.77166,0.30377 -3.18961,0 -4.86036,0.15189 v -11.54334 q 6.98676,0 11.84711,-0.75943 4.86035,-0.75943 7.5943,-1.82263 2.88584,-1.0632 3.94904,-1.97452 h 8.20184 v 53.00822 q 0,2.1264 -0.15188,6.07544 -0.15189,3.79715 -0.45566,7.29052 2.43017,-0.30377 5.31601,-0.30377 3.03772,-0.15188 4.55658,-0.15188 v 11.54333 h -39.79413 z m 18.98575,-79.58826 q -5.16413,0 -8.50562,-3.64527 -3.34149,-3.64526 -3.34149,-8.80938 0,-5.16413 3.49338,-8.80939 3.49337,-3.64527 8.20184,-3.64527 4.86035,0 8.04996,3.64527 3.34149,3.64526 3.34149,8.80939 0,5.16412 -3.03772,8.80938 -3.03772,3.64527 -8.20184,3.64527 z"
       id="path5999" />
    <path
       d="m 467.80225,262.69922 q -11.08768,0 -19.5933,-4.86035 -8.50561,-5.01224 -13.21408,-13.97352 -4.70847,-9.11316 -4.70847,-21.41592 0,-10.63202 4.70847,-19.89707 4.70847,-9.26504 13.21408,-14.88483 8.6575,-5.77166 20.04895,-5.77166 6.37922,0 12.45466,1.82263 6.07544,1.67074 10.93579,5.92355 5.01224,4.25281 7.89807,11.54334 3.03772,7.29053 2.88583,18.22632 l -49.8186,0.91131 q 0,8.20185 1.97451,14.73295 2.12641,6.53109 6.83487,10.32824 4.70847,3.79715 12.60654,3.79715 3.03772,0 6.83487,-1.0632 3.94904,-1.0632 7.89807,-3.49338 4.10093,-2.58206 7.5943,-6.83487 l 6.83487,6.37922 q -5.46789,7.74618 -11.69522,11.8471 -6.22732,3.94904 -12.45465,5.31601 -6.07544,1.36698 -11.23956,1.36698 z M 453.52496,209.691 h 27.94703 q -0.15189,-6.37921 -1.82264,-10.02447 -1.51886,-3.79715 -4.2528,-5.4679 -2.73395,-1.67074 -6.37922,-1.67074 -6.68298,0 -10.48013,4.86035 -3.79715,4.70846 -5.01224,12.30276 z"
       id="path6001" />
    <path
       d="m 548.4537,262.69922 q -6.53109,0 -12.75842,-1.67075 -6.22733,-1.67074 -9.7207,-4.25281 l 0.30377,4.55658 h -11.54334 l -0.60754,-26.12439 h 9.87259 q 0.45566,4.55658 3.64526,8.35373 3.18961,3.79715 8.35373,6.07544 5.16413,2.12641 11.54334,2.12641 2.58206,0 4.86035,-0.75943 2.43018,-0.75943 3.94904,-2.43018 1.67074,-1.82263 1.67074,-4.40469 0,-2.88584 -2.1264,-4.70847 -1.97452,-1.82263 -5.92356,-3.49338 -3.79715,-1.67074 -9.56881,-3.79715 -4.70847,-1.82263 -9.56882,-3.79715 -4.70847,-1.97452 -8.80939,-4.70846 -3.94904,-2.88584 -6.37921,-6.98676 -2.43018,-4.25281 -2.43018,-10.32825 0,-4.40469 1.67075,-8.6575 1.67074,-4.40469 5.16412,-7.89807 3.49338,-3.64527 8.80939,-5.77167 5.4679,-2.1264 12.91031,-2.1264 4.10092,0 9.26505,1.36697 5.31601,1.21509 8.96127,3.79715 v -4.40469 h 11.54334 v 26.88382 h -9.87259 q -0.91132,-5.31601 -3.79715,-9.11316 -2.73395,-3.79715 -7.13865,-5.77167 -4.40469,-2.1264 -9.87259,-2.1264 -3.79715,0 -6.98675,1.82263 -3.03772,1.82263 -3.03772,6.22732 0,3.49338 2.43017,5.61979 2.43018,1.97451 6.68299,3.34149 4.25281,1.36697 9.41693,3.1896 7.74619,2.58207 13.66974,6.07544 6.07544,3.49338 9.56882,8.50562 3.49338,4.86035 3.49338,11.99899 0,7.89808 -3.94904,13.0622 -3.94904,5.16412 -10.32825,7.74619 -6.22732,2.58206 -13.36597,2.58206 z"
       id="path6003" />
  </g>
  <g
     aria-label="Nano"
     id="text295"
     style="font-weight:bold;font-size:154.587px;font-family:Lora;-inkscape-font-specification:'Lora Bold';stroke-width:12.4968;stroke-linejoin:bevel;stroke-opacity:0.466387"
     inkscape:label="Nano">
    <path
       d="M 98.175922,119.02449 48.70808,55.798407 q -2.009631,-2.627979 -4.173849,-5.565132 -2.164218,-2.937153 -4.328436,-6.028893 h -0.154587 l 0.309174,47.921972 q 0,4.173849 -0.154587,8.038526 -0.154587,3.86467 -0.463761,5.8743 2.473392,-0.30917 6.18348,-0.30917 3.864675,-0.15459 5.410545,-0.15459 v 11.9032 H 16.090222 v -10.20274 q 3.555501,-0.15459 5.874306,-0.92752 2.473392,-0.77294 3.710088,-3.5555 1.391283,-2.78257 1.391283,-8.966049 L 26.756725,34.619987 q 0,-4.173849 0.154587,-8.038524 0.154587,-3.864675 0.463761,-5.874306 -2.473392,0.154587 -6.338067,0.309174 -3.710088,0 -5.410545,0.154587 V 9.2677185 h 24.27016 L 87.200244,68.938303 q 3.864676,4.946784 6.338068,8.502285 2.627979,3.555501 4.483023,6.18348 h 0.154587 V 34.619987 q 0,-4.173849 0.154587,-8.038524 0.154587,-3.864675 0.309174,-5.874306 -2.473392,0.154587 -6.18348,0.309174 -3.710089,0 -5.410546,0.154587 V 9.2677185 H 122.29149 V 19.470461 q -3.40091,0.154587 -5.8743,0.927522 -2.47339,0.772935 -3.86468,3.555501 -1.23669,2.627979 -1.23669,8.966046 v 86.10496 z"
       id="path5977" />
    <path
       d="m 172.84178,117.47862 q -0.30917,-2.16422 -0.46376,-3.5555 0,-1.54587 -0.15459,-3.5555 -5.25595,5.25596 -11.13026,7.42018 -5.87431,2.16421 -11.9032,2.16421 -9.89357,0 -15.4587,-5.8743 -5.56513,-5.87431 -5.56513,-14.685767 0,-7.420176 3.71009,-12.676135 3.86467,-5.255958 10.04815,-8.502285 6.33807,-3.400914 13.91283,-5.101371 7.72935,-1.855044 15.4587,-2.164218 v -8.038525 q 0,-4.019262 -1.08211,-7.265589 -0.92752,-3.246327 -3.40091,-5.101371 -2.31881,-1.855044 -6.64724,-1.700457 -2.93716,0.154587 -5.71972,1.236696 -2.78257,1.082109 -4.7922,3.09174 1.2367,1.391283 1.54587,3.09174 0.30918,1.54587 0.30918,2.782566 0,3.09174 -2.4734,6.492655 -2.47339,3.246327 -7.88393,3.09174 -4.63761,-0.154587 -7.11101,-3.246327 -2.47339,-3.091741 -2.47339,-7.26559 0,-6.18348 4.32844,-10.666503 4.48302,-4.63761 11.9032,-7.111002 7.42017,-2.627979 16.38622,-2.627979 13.60366,0 21.02383,7.111002 7.57477,6.956415 7.57477,22.415116 0,5.255958 0,8.966046 0,3.710088 -0.15459,7.420176 0,3.710088 0,8.966047 0,2.164218 -0.15459,6.18348 -0.15459,3.864675 -0.46376,7.420175 2.62798,-0.30917 5.56513,-0.30917 2.93716,-0.15459 4.48303,-0.15459 v 11.74861 z m -1.70046,-35.555009 q -4.32843,0.463761 -8.19311,1.54587 -3.86467,1.082109 -6.80182,2.937153 -2.78257,1.855044 -4.48303,4.483023 -1.54587,2.62798 -1.54587,5.874307 0.15459,4.328436 2.78257,6.183476 2.62798,1.85505 6.02889,1.85505 3.5555,0 6.64724,-1.54587 3.09174,-1.54587 5.56513,-4.019264 0,-1.54587 0,-2.937153 0,-1.54587 0,-3.09174 0,-2.782567 0,-5.565133 0,-2.937153 0,-5.719719 z"
       id="path5979" />
    <path
       d="m 210.87022,117.47862 v -10.04815 q 4.32843,0 6.18348,-1.70046 1.85504,-1.70046 2.3188,-4.7922 0.61835,-3.246324 0.61835,-7.265586 V 67.701607 q 0,-2.782566 0.15459,-6.183481 0.15459,-3.555501 0.46376,-6.956415 -2.47339,0.154587 -5.87431,0.309174 -3.24632,0 -4.94678,0.154587 V 43.27686 q 7.111,0 12.05779,-0.772935 4.94678,-0.772935 7.72935,-1.855044 2.93715,-1.082109 4.01926,-2.009631 h 7.57476 q 0.30918,2.009631 0.30918,2.937153 0,0.927522 0,1.855044 0.15458,0.772935 0.61834,2.937153 3.09174,-2.473392 7.11101,-4.328436 4.01926,-2.009631 8.03852,-3.09174 4.01926,-1.236696 7.111,-1.236696 14.22201,0 20.09631,8.193111 6.0289,8.038524 6.0289,25.970617 v 20.714659 q 0,2.164218 -0.15459,6.18348 -0.15459,3.864675 -0.46376,7.420175 2.62798,-0.30917 5.56513,-0.30917 2.93715,-0.15459 4.48302,-0.15459 v 11.74861 h -40.50179 v -10.04815 q 4.32843,0 6.18348,-1.70046 2.00963,-1.70046 2.47339,-4.7922 0.61835,-3.246324 0.61835,-7.265586 l -0.15459,-21.951355 q 0,-10.048156 -2.93715,-14.840353 -2.78257,-4.946784 -9.5844,-4.946784 -3.86467,0 -7.72935,1.700457 -3.71008,1.700457 -6.33806,4.019262 0,2.164218 0,4.483023 0,2.164219 0,4.328437 v 26.125204 q 0,2.164218 -0.15459,6.18348 -0.15459,3.864675 -0.46376,7.420175 2.47339,-0.30917 5.41054,-0.30917 3.09174,-0.15459 4.63761,-0.15459 v 11.74861 z"
       id="path5981" />
    <path
       d="m 347.37062,119.95201 q -11.13026,0 -20.09631,-4.79219 -8.96605,-4.7922 -14.222,-13.60366 -5.10137,-8.966045 -5.10137,-21.023832 0,-12.830721 5.25595,-22.415116 5.41055,-9.738981 14.22201,-14.994939 8.96604,-5.410545 19.47796,-5.410545 11.13027,0 19.94172,4.792197 8.81146,4.792197 13.91283,13.758243 5.10138,8.81146 5.10138,21.17842 0,12.985308 -4.94679,22.569702 -4.94678,9.5844 -13.60365,14.84035 -8.65688,5.10137 -19.94173,5.10137 z m 0.61835,-10.97567 q 6.18348,-0.15459 9.27522,-4.32844 3.24633,-4.17385 4.48302,-10.511915 1.2367,-6.338068 1.2367,-12.830722 0,-5.719719 -0.92752,-11.594025 -0.77294,-5.874307 -2.62798,-10.666504 -1.85505,-4.792197 -5.10137,-7.72935 -3.09174,-2.937153 -7.72935,-2.782566 -6.0289,0.154587 -9.5844,4.328436 -3.40091,4.173849 -4.94678,10.511916 -1.39128,6.183481 -1.39128,12.985309 0,7.883937 1.70045,15.458701 1.70046,7.574763 5.41055,12.52155 3.86467,4.79219 10.20274,4.63761 z"
       id="path5983" />
  </g>
</svg>
