<?xml version="1.0" encoding="UTF-8" standalone="no"?>
<!-- Generator: visioncortex VTracer 0.6.4 -->

<svg
   version="1.1"
   width="300"
   height="300"
   id="svg138"
   sodipodi:docname="favicon.svg"
   inkscape:version="1.2.2 (b0a8486541, 2022-12-01)"
   xmlns:inkscape="http://www.inkscape.org/namespaces/inkscape"
   xmlns:sodipodi="http://sodipodi.sourceforge.net/DTD/sodipodi-0.dtd"
   xmlns="http://www.w3.org/2000/svg"
   xmlns:svg="http://www.w3.org/2000/svg">
  <defs
     id="defs142" />
  <sodipodi:namedview
     id="namedview140"
     pagecolor="#ffffff"
     bordercolor="#000000"
     borderopacity="0.25"
     inkscape:showpageshadow="2"
     inkscape:pageopacity="0.0"
     inkscape:pagecheckerboard="0"
     inkscape:deskcolor="#d1d1d1"
     showgrid="false"
     inkscape:zoom="1.2291667"
     inkscape:cx="174.10169"
     inkscape:cy="234.30508"
     inkscape:window-width="1920"
     inkscape:window-height="1118"
     inkscape:window-x="0"
     inkscape:window-y="0"
     inkscape:window-maximized="1"
     inkscape:current-layer="svg138"
     showguides="true" />
  <path
     d="m 253.24583,293.89929 q -14.28525,0 -22.98061,-1.2422 -8.38483,-0.93163 -15.21692,-4.65823 -6.5215,-3.41604 -15.2169,-10.86921 -13.04307,-11.80086 -22.67007,-22.35952 -9.31648,-10.24812 -18.63293,-17.08019 -9.31649,-6.52153 -22.35954,-6.52153 -28.57052,0 -48.756197,-9.93757 Q 67.53754,210.98272 55.115578,194.52361 42.693631,177.75399 36.793203,157.56829 31.20332,137.38261 31.20332,117.50748 q 0,-19.564589 6.521502,-39.439723 6.832098,-20.185681 20.185697,-36.955329 13.66416,-16.769647 34.160371,-27.01776 20.49625,-10.2481128 48.1351,-10.2481128 28.25997,0 48.7562,10.2481128 20.49624,10.248113 33.53929,27.328305 13.04307,16.769665 19.25403,36.644784 6.21099,19.875134 6.21099,39.439723 0,15.52744 -4.34769,31.67599 -4.3477,15.83801 -13.04305,30.74436 -8.69537,14.59578 -22.04896,26.39665 -13.04309,11.49032 -30.43383,18.32238 9.00593,0 15.83799,1.24222 7.14265,1.24218 13.97473,4.65823 6.83206,3.72658 14.90636,11.49029 10.8692,9.93759 17.08019,16.14855 6.52151,6.21099 10.55865,9.31647 4.03715,3.41605 7.45316,4.34771 3.72661,1.24219 8.69539,1.24219 v 20.80677 z M 142.37985,208.49833 q 16.14855,0 27.01777,-7.76373 10.8692,-8.07429 17.39071,-20.80677 6.52154,-12.73251 9.31649,-27.63889 3.10546,-15.21689 3.10546,-29.50214 0,-21.42786 -3.72657,-39.12916 Q 191.75713,65.956355 183.9934,53.223846 176.22968,40.180792 164.11828,33.348711 152.31741,26.206086 136.16886,26.516615 120.02031,26.827177 109.15109,35.212 98.28188,43.286279 91.76036,56.329333 85.54937,69.061858 82.754416,84.27873 q -2.794924,15.216893 -2.794924,29.50215 0,14.5958 3.105484,31.0549 3.416066,16.45911 10.558657,31.0549 7.142637,14.5958 18.943507,23.60174 12.11142,9.00591 29.81271,9.00591 z"
     id="path5991"
     style="font-weight:bold;font-size:151.886px;font-family:Lora;-inkscape-font-specification:'Lora Bold';fill:#aa0000;stroke-width:2015.76;stroke-linejoin:bevel" />
  <path
     d="m 156.88475,150.22568 -31.99633,-40.89532 q -1.29986,-1.6998 -2.6997,-3.59958 -1.39983,-1.89978 -2.79968,-3.89955 h -0.1 l 0.19998,30.99644 q 0,2.69969 -0.1,5.1994 -0.1,2.49972 -0.29997,3.79957 1.59982,-0.19998 3.99956,-0.19998 2.4997,-0.1 3.49959,-0.1 v 7.69913 h -22.79737 v -6.59925 q 2.29974,-0.1 3.79957,-0.59993 1.59981,-0.49995 2.39972,-2.29974 0.89989,-1.79979 0.89989,-5.79933 l -0.19997,-38.295613 q 0,-2.699691 0.1,-5.199403 0.1,-2.499714 0.29997,-3.799564 -1.59982,0.09999 -4.09954,0.199977 -2.39972,0 -3.49959,0.09999 v -7.699109 h 15.69819 l 30.59649,38.595572 q 2.49972,3.19963 4.09953,5.49937 1.69981,2.29973 2.89968,3.99954 h 0.1 V 95.631937 q 0,-2.699691 0.1,-5.199403 0.1,-2.499714 0.19999,-3.799564 -1.59982,0.09999 -3.99954,0.199977 -2.39973,0 -3.4996,0.09999 V 79.23382 h 22.79737 v 6.599243 q -2.19974,0.09999 -3.79956,0.599931 -1.59982,0.499943 -2.49971,2.299736 -0.79991,1.699806 -0.79991,5.799335 v 55.693615 z"
     id="path5977"
     style="font-weight:bold;font-size:154.587px;font-family:Lora;-inkscape-font-specification:'Lora Bold';stroke-width:8.08312;stroke-linejoin:bevel;stroke-opacity:0.466387" />
</svg>
